<mxfile host="app.diagrams.net" modified="2023-12-10T20:08:13.574Z" agent="Mozilla/5.0 (Windows NT 10.0; Win64; x64) AppleWebKit/537.36 (KHTML, like Gecko) Chrome/119.0.0.0 Safari/537.36 Edg/119.0.0.0" etag="QW0vG7ExmrxFcBimcOlk" version="22.1.7" type="device">
  <diagram name="StrÃ¡nka-1" id="bT728yVRk8Zy-Vi7z-u0">
    <mxGraphModel dx="786" dy="467" grid="1" gridSize="10" guides="1" tooltips="1" connect="1" arrows="1" fold="1" page="1" pageScale="1" pageWidth="827" pageHeight="1169" math="0" shadow="0">
      <root>
        <mxCell id="0" />
        <mxCell id="1" parent="0" />
        <mxCell id="tnusmLQVJhf_LfVTZwIc-1" value="" style="rounded=0;whiteSpace=wrap;html=1;" vertex="1" parent="1">
          <mxGeometry x="150" y="60" width="500" height="320" as="geometry" />
        </mxCell>
        <mxCell id="tnusmLQVJhf_LfVTZwIc-2" value="Actor" style="shape=umlActor;verticalLabelPosition=bottom;verticalAlign=top;html=1;outlineConnect=0;" vertex="1" parent="1">
          <mxGeometry x="230" y="270" width="30" height="60" as="geometry" />
        </mxCell>
        <mxCell id="tnusmLQVJhf_LfVTZwIc-5" value="" style="endArrow=none;html=1;rounded=0;exitX=0.999;exitY=0.85;exitDx=0;exitDy=0;entryX=0;entryY=0.846;entryDx=0;entryDy=0;entryPerimeter=0;exitPerimeter=0;" edge="1" parent="1" source="tnusmLQVJhf_LfVTZwIc-1" target="tnusmLQVJhf_LfVTZwIc-1">
          <mxGeometry width="50" height="50" relative="1" as="geometry">
            <mxPoint x="380" y="260" as="sourcePoint" />
            <mxPoint x="430" y="210" as="targetPoint" />
          </mxGeometry>
        </mxCell>
        <mxCell id="tnusmLQVJhf_LfVTZwIc-7" value="enemy" style="ellipse;shape=cloud;whiteSpace=wrap;html=1;" vertex="1" parent="1">
          <mxGeometry x="320" y="250" width="60" height="40" as="geometry" />
        </mxCell>
        <mxCell id="tnusmLQVJhf_LfVTZwIc-8" value="enemy" style="ellipse;shape=cloud;whiteSpace=wrap;html=1;" vertex="1" parent="1">
          <mxGeometry x="350" y="130" width="60" height="40" as="geometry" />
        </mxCell>
        <mxCell id="tnusmLQVJhf_LfVTZwIc-9" value="enemy" style="ellipse;shape=cloud;whiteSpace=wrap;html=1;" vertex="1" parent="1">
          <mxGeometry x="540" y="240" width="60" height="40" as="geometry" />
        </mxCell>
        <mxCell id="tnusmLQVJhf_LfVTZwIc-10" value="enemy" style="ellipse;shape=cloud;whiteSpace=wrap;html=1;" vertex="1" parent="1">
          <mxGeometry x="450" y="190" width="60" height="40" as="geometry" />
        </mxCell>
        <mxCell id="tnusmLQVJhf_LfVTZwIc-11" value="&lt;font style=&quot;font-size: 12px;&quot;&gt;Game Time: 58.56s&lt;br&gt;Score: 21&lt;br&gt;&lt;/font&gt;" style="text;html=1;strokeColor=none;fillColor=none;align=center;verticalAlign=middle;whiteSpace=wrap;rounded=0;" vertex="1" parent="1">
          <mxGeometry x="160" y="60" width="120" height="80" as="geometry" />
        </mxCell>
        <mxCell id="tnusmLQVJhf_LfVTZwIc-12" value="Menu" style="text;html=1;strokeColor=none;fillColor=none;align=center;verticalAlign=middle;whiteSpace=wrap;rounded=0;" vertex="1" parent="1">
          <mxGeometry x="570" y="80" width="60" height="30" as="geometry" />
        </mxCell>
      </root>
    </mxGraphModel>
  </diagram>
</mxfile>
